<?xml version="1.0" encoding="utf-8"?>
<!-- Generator: Adobe Illustrator 17.0.0, SVG Export Plug-In . SVG Version: 6.00 Build 0)  -->
<!DOCTYPE svg PUBLIC "-//W3C//DTD SVG 1.1//EN" "http://www.w3.org/Graphics/SVG/1.1/DTD/svg11.dtd">
<svg version="1.1" id="Layer_1" xmlns="http://www.w3.org/2000/svg" xmlns:xlink="http://www.w3.org/1999/xlink" x="0px" y="0px"
	 width="60.974px" height="42.042px" viewBox="0 0 60.974 42.042" enable-background="new 0 0 60.974 42.042" xml:space="preserve">
<g>
	<g>
		<path d="M16.255,14.124c-0.029,0.047-0.102,0.058-0.215,0.03c-0.115-0.025-0.248-0.039-0.4-0.039s-0.367,0.031-0.646,0.092
			c-0.277,0.062-0.716,0.158-1.313,0.291c-0.598,0.131-1.143,0.197-1.635,0.197c-1.113,0-2.192-0.262-3.239-0.787
			c-1.045-0.523-1.882-1.268-2.509-2.232c-0.627-0.963-0.94-2.081-0.94-3.353S5.67,5.9,6.297,4.869
			c0.914-1.512,2.291-2.496,4.131-2.953c0.586-0.146,1.172-0.22,1.758-0.22c0.803,0,1.755,0.135,2.856,0.404
			c0.334,0.082,0.617,0.167,0.848,0.255c0.232,0.088,0.374,0.132,0.427,0.132l0.264-0.07h0.272c0.07,0,0.105,0.05,0.105,0.149V5.3
			c0,0.059-0.053,0.088-0.158,0.088s-0.167-0.013-0.185-0.04c-0.018-0.025-0.035-0.059-0.053-0.096
			c-0.018-0.039-0.036-0.078-0.058-0.119c-0.02-0.041-0.041-0.079-0.061-0.114c-0.021-0.035-0.034-0.062-0.04-0.079
			c-0.879-1.764-2.212-2.646-3.999-2.646c-1.611,0-2.871,0.513-3.779,1.538S7.264,6.215,7.264,7.906
			c0,1.689,0.499,3.142,1.499,4.354c0.998,1.213,2.356,1.819,4.073,1.819c0.938,0,1.792-0.278,2.562-0.835
			c0.771-0.557,1.376-1.239,1.815-2.048c0.012-0.035,0.047-0.053,0.105-0.053h0.114c0.059,0,0.088,0.035,0.088,0.105
			s-0.018,0.138-0.053,0.202L16.255,14.124z"/>
		<path d="M21.194,7.655c0,0.141,0.021,0.211,0.062,0.211s0.07-0.011,0.088-0.03c0.018-0.021,0.141-0.157,0.369-0.409
			c0.662-0.738,1.333-1.107,2.013-1.107c0.891,0,1.544,0.199,1.96,0.598c0.51,0.504,0.765,1.351,0.765,2.54v3.665
			c0,0.574,0.316,0.908,0.949,1.002c0.275,0.035,0.413,0.097,0.413,0.185s-0.029,0.138-0.088,0.149h-3.92
			c-0.059-0.012-0.088-0.053-0.088-0.123c0-0.105,0.138-0.176,0.413-0.211c0.633-0.094,0.949-0.428,0.949-1.002V9.545
			c0-0.861-0.062-1.421-0.185-1.679c-0.234-0.516-0.724-0.773-1.468-0.773c-0.457,0-0.943,0.194-1.459,0.585
			c-0.516,0.389-0.773,0.818-0.773,1.287v4.157c0,0.574,0.316,0.908,0.949,1.002c0.275,0.035,0.413,0.097,0.413,0.185
			s-0.029,0.138-0.088,0.149h-3.92c-0.059-0.012-0.088-0.053-0.088-0.123c0-0.105,0.138-0.176,0.413-0.211
			c0.633-0.094,0.949-0.428,0.949-1.002V2.162c0-0.246-0.135-0.416-0.404-0.51c-0.117-0.041-0.243-0.074-0.378-0.102
			C18.906,1.525,18.8,1.5,18.72,1.477c-0.078-0.023-0.129-0.045-0.148-0.066c-0.021-0.02-0.031-0.064-0.031-0.131
			c0-0.068,0.044-0.125,0.132-0.172l2.241-1.055C20.983,0.018,21.027,0,21.045,0c0.1,0,0.149,0.07,0.149,0.211V7.655z"/>
		<path d="M34.339,13.373c0.143,0.09,0.309,0.136,0.496,0.136s0.344-0.048,0.471-0.146c0.125-0.096,0.213-0.145,0.26-0.145
			s0.07,0.062,0.07,0.189c0,0.125-0.059,0.232-0.176,0.32c-0.879,0.645-1.475,0.967-1.785,0.967c-0.375,0-0.68-0.39-0.914-1.169
			c-0.018-0.059-0.032-0.085-0.044-0.079c-0.727,0.545-1.184,0.873-1.371,0.984c-0.48,0.275-0.962,0.319-1.446,0.132
			c-0.482-0.188-0.833-0.498-1.05-0.932c-0.105-0.223-0.158-0.46-0.158-0.712c0-0.498,0.185-0.894,0.554-1.187
			s1.072-0.574,2.109-0.844c0.352-0.094,0.665-0.214,0.94-0.36s0.421-0.24,0.435-0.281c0.016-0.041,0.022-0.079,0.022-0.114V8.446
			c0-0.662-0.258-1.128-0.773-1.397c-0.17-0.088-0.374-0.132-0.61-0.132c-0.238,0-0.479,0.094-0.721,0.281
			c-0.244,0.188-0.365,0.454-0.365,0.8l0.044,0.343c-0.035,0.07-0.246,0.188-0.633,0.352s-0.609,0.252-0.668,0.264
			c-0.094,0-0.141-0.112-0.141-0.339c0-0.225,0.067-0.476,0.202-0.751s0.325-0.527,0.571-0.756c0.574-0.533,1.23-0.8,1.969-0.8
			s1.339,0.203,1.802,0.611c0.463,0.406,0.695,0.892,0.695,1.454v4.632C34.124,13.16,34.194,13.281,34.339,13.373z M30.071,12.753
			c0,0.281,0.108,0.526,0.325,0.733c0.217,0.209,0.464,0.312,0.743,0.312c0.277,0,0.616-0.119,1.015-0.355
			c0.398-0.238,0.598-0.482,0.598-0.734v-1.784c0-0.064-0.015-0.097-0.044-0.097s-0.05,0.003-0.062,0.009l-2.039,0.949
			c-0.211,0.152-0.353,0.281-0.427,0.387C30.108,12.278,30.071,12.472,30.071,12.753z"/>
		<path d="M42.921,11.689l-0.018-1.854c0-0.756-0.064-1.286-0.193-1.591s-0.293-0.535-0.492-0.689
			c-0.199-0.156-0.469-0.233-0.805-0.233c-0.338,0-1.051,0.264-2.141,0.791c-0.146,0.088-0.223,0.17-0.229,0.246v4.729
			c0,0.592,0.316,0.932,0.949,1.02c0.275,0.041,0.414,0.106,0.414,0.198c0,0.09-0.029,0.142-0.088,0.153h-3.92
			c-0.059-0.012-0.088-0.053-0.088-0.123c0-0.111,0.137-0.188,0.412-0.229c0.633-0.088,0.949-0.428,0.949-1.02V8.042
			c0-0.246-0.135-0.416-0.404-0.51c-0.117-0.041-0.242-0.075-0.377-0.101c-0.135-0.027-0.242-0.052-0.32-0.075
			c-0.08-0.023-0.131-0.046-0.15-0.065C36.399,7.27,36.39,7.227,36.39,7.158c0-0.066,0.045-0.124,0.133-0.171l2.24-1.055
			c0.07-0.035,0.115-0.053,0.133-0.053c0.1,0,0.148,0.07,0.148,0.211v1.371c0.018,0.059,0.041,0.088,0.07,0.088
			c0.035,0,0.162-0.053,0.379-0.158c0.504-0.252,1.01-0.495,1.52-0.729s0.932-0.352,1.266-0.352c1.354,0,2.031,1.233,2.031,3.7
			l-0.08,2.566v0.51c0,0.457,0.229,0.756,0.686,0.896c0.193,0.064,0.379,0.11,0.559,0.136c0.178,0.027,0.295,0.052,0.352,0.075
			c0.055,0.023,0.084,0.07,0.084,0.141s-0.029,0.111-0.088,0.123h-4.236c-0.059-0.012-0.088-0.053-0.088-0.123
			c0-0.111,0.137-0.188,0.412-0.229c0.627-0.088,0.941-0.451,0.941-1.09C42.897,12.724,42.921,12.281,42.921,11.689z"/>
		<path d="M53.282,7.154l2.355-0.105c0.135,0,0.223,0.015,0.264,0.044s0.086,0.13,0.133,0.304c0.047,0.172,0.07,0.335,0.07,0.487
			s-0.016,0.24-0.045,0.264s-0.088,0.035-0.176,0.035h-1.951c0.035,0.064,0.074,0.132,0.115,0.202s0.094,0.188,0.158,0.352
			s0.096,0.418,0.096,0.76c0,0.344-0.082,0.701-0.25,1.072c-0.166,0.373-0.412,0.702-0.734,0.989
			c-0.715,0.645-1.641,0.967-2.777,0.967c-0.299,0-0.627-0.056-0.984-0.167c-0.088,0.094-0.205,0.18-0.352,0.26
			c-0.146,0.078-0.289,0.159-0.43,0.241c-0.352,0.199-0.527,0.398-0.527,0.598c0,0.498,0.826,0.753,2.479,0.765
			s2.738,0.066,3.256,0.162c0.52,0.098,0.922,0.289,1.209,0.576c0.451,0.451,0.676,0.967,0.676,1.547
			c0,0.498-0.213,1.011-0.641,1.538c-0.744,0.932-1.881,1.553-3.41,1.863c-0.545,0.111-1.123,0.167-1.732,0.167
			c-1.107,0-1.947-0.201-2.521-0.602c-0.574-0.402-0.861-0.887-0.861-1.455c0-0.311,0.072-0.566,0.219-0.77
			c0.146-0.201,0.332-0.393,0.559-0.57c0.225-0.18,0.473-0.367,0.742-0.562c0.27-0.197,0.527-0.447,0.773-0.752
			c-0.562-0.047-1.045-0.226-1.445-0.536c-0.402-0.311-0.602-0.615-0.602-0.914s0.078-0.521,0.236-0.663
			c0.158-0.145,0.352-0.268,0.58-0.369c0.229-0.104,0.469-0.198,0.721-0.286s0.473-0.202,0.66-0.343
			c-0.656-0.258-1.164-0.613-1.521-1.068c-0.357-0.453-0.535-0.95-0.535-1.489c0-1.002,0.365-1.819,1.094-2.452
			c0.73-0.633,1.609-0.949,2.641-0.949S52.673,6.58,53.282,7.154z M48.507,16.321c-0.139,0.135-0.252,0.278-0.34,0.431
			s-0.131,0.344-0.131,0.576c0,0.23,0.084,0.475,0.25,0.729c0.168,0.256,0.395,0.485,0.682,0.69
			c0.633,0.469,1.395,0.703,2.285,0.703s1.697-0.259,2.422-0.778c0.723-0.518,1.084-1.086,1.084-1.705
			c0-0.617-0.299-1.032-0.896-1.243c-0.281-0.094-1.004-0.152-2.17-0.176s-1.922-0.056-2.268-0.097
			c-0.152,0.176-0.311,0.331-0.471,0.466C48.792,16.052,48.644,16.187,48.507,16.321z M52.86,9.492c0-0.826-0.205-1.498-0.619-2.018
			c-0.412-0.518-0.959-0.777-1.639-0.777c-0.879,0-1.5,0.413-1.863,1.239c-0.141,0.316-0.211,0.68-0.211,1.09
			c0,0.838,0.172,1.535,0.518,2.092c0.422,0.668,0.977,1.002,1.662,1.002s1.215-0.231,1.59-0.694S52.86,10.318,52.86,9.492z"/>
		<path d="M9.109,30.228c0,0.047-0.023,0.07-0.07,0.07H4.548c-0.047,0-0.07-0.023-0.07-0.07v-0.211c0-0.047,0.038-0.07,0.114-0.07
			c0.803-0.035,1.345-0.463,1.626-1.283l3.586-10.38c0.006-0.012,0.009-0.026,0.009-0.044l-0.097-0.29
			c0-0.029,0.012-0.044,0.035-0.044h1.758c0.012,0.006,0.027,0.012,0.049,0.018c0.02,0.006,0.036,0.023,0.048,0.053l3.718,10.433
			c0.082,0.158,0.148,0.302,0.197,0.431c0.051,0.129,0.107,0.246,0.172,0.352c0.141,0.24,0.372,0.425,0.694,0.554
			c0.27,0.135,0.516,0.202,0.738,0.202c0.047,0,0.07,0.026,0.07,0.079v0.202c0,0.047-0.023,0.07-0.07,0.07h-5.379
			c-0.047,0-0.07-0.023-0.07-0.07v-0.211c0-0.047,0.108-0.076,0.325-0.088s0.396-0.023,0.536-0.035
			c0.814-0.088,1.222-0.363,1.222-0.826c0-0.035-0.006-0.076-0.018-0.123L12.414,25.2c-0.006-0.012-0.018-0.038-0.035-0.079
			c-0.07-0.199-0.193-0.299-0.369-0.299H8.89c-0.176,0-0.313,0.097-0.413,0.29c-0.018,0.041-0.026,0.064-0.026,0.07l-1.318,3.858
			v0.079c0,0.152,0.079,0.29,0.237,0.413c0.357,0.275,0.838,0.413,1.441,0.413h0.229c0.047,0,0.07,0.023,0.07,0.07V30.228z
			 M11.711,23.847c0.105,0,0.158-0.044,0.158-0.132c0-0.047-0.012-0.1-0.035-0.158l-1.31-3.604
			c-0.059-0.158-0.103-0.237-0.132-0.237s-0.076,0.082-0.141,0.246l-1.23,3.595c-0.023,0.059-0.035,0.121-0.035,0.189
			c0,0.066,0.044,0.101,0.132,0.101H11.711z"/>
		<path d="M21.098,29.964c0.275,0.035,0.413,0.105,0.413,0.211c0,0.07-0.029,0.111-0.088,0.123h-3.92
			c-0.059-0.012-0.088-0.053-0.088-0.123c0-0.105,0.138-0.176,0.413-0.211c0.633-0.094,0.949-0.428,0.949-1.002v-10.96
			c0-0.246-0.135-0.416-0.404-0.51c-0.117-0.041-0.243-0.074-0.378-0.102c-0.135-0.025-0.242-0.051-0.32-0.074
			c-0.08-0.023-0.129-0.045-0.15-0.066c-0.02-0.02-0.03-0.064-0.03-0.131c0-0.068,0.044-0.125,0.132-0.172l2.241-1.055
			c0.07-0.035,0.114-0.053,0.132-0.053c0.1,0,0.149,0.07,0.149,0.211v12.911C20.148,29.536,20.465,29.87,21.098,29.964z"/>
		<path d="M24.578,22.941c0,0.182,0.042,0.272,0.128,0.272c0.084,0,0.458-0.19,1.12-0.571c0.773-0.328,1.362-0.492,1.767-0.492
			s0.791,0.117,1.16,0.352s0.683,0.542,0.94,0.923c0.545,0.785,0.817,1.737,0.817,2.856s-0.389,2.107-1.164,2.967
			c-0.777,0.857-1.801,1.287-3.072,1.287c-0.826,0-1.588-0.1-2.285-0.299c-0.205-0.059-0.379-0.105-0.523-0.141
			c-0.143-0.035-0.223-0.072-0.236-0.109c-0.016-0.039-0.022-0.084-0.022-0.137V18.002c0-0.246-0.135-0.416-0.404-0.51
			c-0.117-0.041-0.243-0.074-0.378-0.102c-0.135-0.025-0.242-0.051-0.32-0.074c-0.08-0.023-0.129-0.045-0.15-0.066
			c-0.02-0.02-0.03-0.064-0.03-0.131c0-0.068,0.044-0.125,0.132-0.172l2.241-1.055c0.07-0.035,0.114-0.053,0.132-0.053
			c0.1,0,0.149,0.07,0.149,0.211V22.941z M26.441,23.223c-0.521,0-1.107,0.188-1.758,0.562c-0.07,0.041-0.105,0.111-0.105,0.211
			v4.157c0.059,0.533,0.29,0.949,0.694,1.248s0.847,0.448,1.327,0.448c0.844,0,1.495-0.334,1.956-1.002
			c0.459-0.668,0.689-1.43,0.689-2.285s-0.234-1.626-0.703-2.312S27.373,23.223,26.441,23.223z"/>
		<path d="M33.508,25.666c-0.1,0-0.149,0.214-0.149,0.642c0,0.908,0.27,1.67,0.809,2.285s1.209,0.923,2.008,0.923
			c0.801,0,1.57-0.346,2.309-1.037c0.012-0.012,0.025-0.018,0.043-0.018h0.045c0.035,0,0.068,0.027,0.1,0.084
			c0.033,0.055,0.064,0.092,0.094,0.109c-0.68,0.826-1.48,1.397-2.4,1.714c-0.316,0.111-0.674,0.167-1.072,0.167
			s-0.803-0.109-1.213-0.33c-0.41-0.219-0.762-0.508-1.055-0.865c-0.621-0.744-0.932-1.672-0.932-2.781
			c0-1.111,0.338-2.123,1.016-3.037c0.676-0.914,1.607-1.371,2.791-1.371c0.85,0,1.543,0.379,2.082,1.139
			c0.539,0.758,0.809,1.425,0.809,1.999c0,0.252-0.061,0.378-0.184,0.378H33.508z M33.604,24.822c0,0.111,0.053,0.167,0.158,0.167
			h3.314c0.152,0,0.229-0.091,0.229-0.272c0-0.422-0.189-0.854-0.568-1.297c-0.377-0.441-0.791-0.663-1.242-0.663
			c-0.439,0-0.84,0.199-1.201,0.598c-0.359,0.398-0.59,0.853-0.689,1.362V24.822z"/>
		<path d="M45.61,23.996c-0.07-0.012-0.174-0.05-0.309-0.114c-0.486-0.223-0.867-0.334-1.143-0.334s-0.564,0.171-0.865,0.515
			c-0.303,0.342-0.453,0.651-0.453,0.927v3.973c0,0.439,0.256,0.732,0.766,0.879c0.223,0.059,0.43,0.101,0.623,0.128
			c0.193,0.025,0.318,0.051,0.375,0.074c0.055,0.023,0.082,0.068,0.082,0.137c0,0.066-0.029,0.106-0.088,0.118h-4.402
			c-0.059-0.012-0.088-0.053-0.088-0.123c0-0.105,0.137-0.176,0.412-0.211c0.633-0.094,0.949-0.428,0.949-1.002v-4.649
			c0-0.246-0.135-0.416-0.404-0.51c-0.117-0.041-0.242-0.074-0.377-0.102c-0.135-0.025-0.242-0.051-0.32-0.074
			c-0.08-0.023-0.131-0.045-0.15-0.066c-0.021-0.02-0.031-0.064-0.031-0.131c0-0.068,0.045-0.125,0.133-0.172l2.24-1.055
			c0.07-0.035,0.115-0.053,0.133-0.053c0.1,0,0.148,0.07,0.148,0.211v1.424c0,0.07,0.018,0.105,0.053,0.105
			c0.047,0,0.168-0.138,0.361-0.413c0.557-0.779,1.016-1.169,1.379-1.169c0.205,0,0.52,0.082,0.945,0.246
			c0.424,0.164,0.637,0.302,0.637,0.413c0,0.135-0.066,0.34-0.201,0.615S45.745,23.996,45.61,23.996z"/>
		<path d="M48.968,23.539c-0.035,0-0.053,0.026-0.053,0.079v4.852c0,0.352,0.078,0.627,0.234,0.826
			c0.154,0.199,0.352,0.299,0.592,0.299s0.449-0.04,0.629-0.118c0.178-0.08,0.334-0.166,0.467-0.26
			c0.131-0.094,0.25-0.18,0.355-0.26c0.105-0.078,0.199-0.118,0.281-0.118s0.123,0.021,0.123,0.062c0,0.141-0.016,0.231-0.045,0.272
			c-0.703,0.908-1.381,1.362-2.033,1.362c-0.654,0-1.146-0.207-1.477-0.619c-0.332-0.414-0.498-0.907-0.498-1.481v-4.896h-0.658
			c-0.164,0-0.25-0.053-0.26-0.158c-0.008-0.105,0.008-0.173,0.049-0.202c0.311-0.199,0.738-0.557,1.283-1.072
			c0.059-0.064,0.137-0.161,0.236-0.29s0.244-0.305,0.436-0.527c0.189-0.223,0.336-0.334,0.436-0.334s0.148,0.041,0.148,0.123
			c0,0.012-0.1,0.396-0.299,1.151c0,0.105,0.047,0.161,0.141,0.167h2.242c0.258,0,0.387,0.363,0.387,1.09
			c0,0.035-0.023,0.053-0.07,0.053H48.968z"/>
		<path d="M52.562,26.348c0-1.152,0.41-2.143,1.227-2.971c0.818-0.83,1.797-1.244,2.939-1.244s2.137,0.402,2.98,1.209
			c0.844,0.805,1.266,1.8,1.266,2.983s-0.4,2.181-1.199,2.993c-0.801,0.811-1.805,1.217-3.012,1.217s-2.209-0.41-3.006-1.23
			S52.562,27.498,52.562,26.348z M54.751,28.61c0.574,0.967,1.355,1.45,2.346,1.45c0.768,0,1.355-0.308,1.764-0.923
			c0.406-0.615,0.609-1.371,0.609-2.268s-0.285-1.816-0.855-2.76c-0.572-0.943-1.342-1.415-2.309-1.415
			c-0.709,0-1.268,0.307-1.674,0.918c-0.408,0.613-0.611,1.389-0.611,2.33C54.021,26.883,54.265,27.772,54.751,28.61z"/>
	</g>
	<g>
		<path d="M0,40.831c0-0.338,0.12-0.633,0.36-0.883c0.24-0.249,0.532-0.375,0.873-0.375c0.336,0,0.625,0.122,0.869,0.366
			c0.243,0.243,0.365,0.539,0.365,0.888c0,0.348-0.12,0.637-0.36,0.868c-0.241,0.23-0.532,0.347-0.874,0.347
			c-0.335,0-0.625-0.117-0.868-0.352S0,41.17,0,40.831z"/>
		<path d="M11.817,34.125c0,0.443-0.256,0.665-0.769,0.665c-0.26,0-0.479-0.074-0.66-0.224c-0.18-0.148-0.319-0.275-0.417-0.38
			c-0.099-0.104-0.201-0.2-0.309-0.289c-0.456-0.373-1.011-0.414-1.666-0.123s-1.159,0.911-1.514,1.86
			C6.287,36.16,6.188,36.682,6.188,37.2c0,1.114,0.253,2.024,0.76,2.729c0.506,0.706,1.281,1.059,2.325,1.059
			c0.778,0,1.478-0.349,2.099-1.044c0.189-0.209,0.304-0.313,0.341-0.313c0.038,0,0.079,0.019,0.124,0.057
			c0.044,0.038,0.066,0.094,0.066,0.166c0,0.073-0.02,0.128-0.057,0.166c-0.969,1.349-2.187,2.022-3.655,2.022
			c-1.062,0-1.935-0.396-2.615-1.187c-0.68-0.791-1.02-1.696-1.02-2.715c0.006-1.886,0.461-3.243,1.366-4.072
			c0.798-0.728,1.934-1.092,3.408-1.092c0.911,0,1.516,0.092,1.812,0.275c0.298,0.184,0.507,0.414,0.627,0.693
			C11.802,34.008,11.817,34.068,11.817,34.125z"/>
		<path d="M13.279,37.519c0-1.243,0.441-2.312,1.324-3.208s1.941-1.344,3.176-1.344c1.233,0,2.306,0.436,3.218,1.306
			c0.911,0.87,1.366,1.944,1.366,3.223s-0.432,2.355-1.295,3.231c-0.864,0.877-1.948,1.315-3.252,1.315s-2.386-0.443-3.246-1.329
			S13.279,38.762,13.279,37.519z M15.644,39.963c0.62,1.044,1.465,1.566,2.534,1.566c0.829,0,1.463-0.332,1.903-0.997
			c0.439-0.664,0.659-1.48,0.659-2.449c0-0.968-0.309-1.961-0.926-2.98c-0.616-1.019-1.447-1.528-2.491-1.528
			c-0.766,0-1.368,0.331-1.809,0.992c-0.439,0.661-0.659,1.5-0.659,2.516S15.118,39.058,15.644,39.963z"/>
		<path d="M36.251,38.795l-0.02-2.002c0-0.816-0.068-1.39-0.209-1.719c-0.139-0.329-0.316-0.577-0.531-0.745
			c-0.215-0.167-0.504-0.251-0.869-0.251c-0.363,0-1.133,0.284-2.311,0.854c-0.158,0.096-0.24,0.184-0.246,0.267v5.106
			c0,0.64,0.342,1.006,1.025,1.101c0.297,0.045,0.445,0.116,0.445,0.214c0,0.099-0.031,0.153-0.096,0.166h-4.232
			c-0.064-0.013-0.096-0.057-0.096-0.133c0-0.12,0.148-0.202,0.447-0.247c0.684-0.095,1.025-0.461,1.025-1.101v-4.728
			c0-0.993-0.615-1.49-1.842-1.49c-0.45,0-1.073,0.266-1.871,0.798c-0.202,0.133-0.351,0.256-0.446,0.37v5.05
			c0,0.64,0.342,1.006,1.025,1.101c0.298,0.045,0.446,0.116,0.446,0.214c0,0.099-0.031,0.153-0.095,0.166h-4.233
			c-0.063-0.013-0.096-0.057-0.096-0.133c0-0.12,0.149-0.202,0.446-0.247c0.684-0.095,1.025-0.455,1.025-1.082v-5.467
			c0-0.267-0.146-0.449-0.437-0.551c-0.127-0.044-0.263-0.081-0.408-0.109s-0.261-0.056-0.347-0.081
			c-0.085-0.024-0.139-0.049-0.161-0.07c-0.022-0.022-0.033-0.07-0.033-0.143c0-0.073,0.048-0.135,0.143-0.186l2.42-1.139
			c0.076-0.038,0.124-0.057,0.143-0.057c0.107,0,0.161,0.075,0.161,0.228v1.575c0.007,0.038,0.03,0.058,0.071,0.058
			s0.146-0.045,0.313-0.133c0.168-0.089,0.388-0.214,0.66-0.375c0.271-0.162,0.631-0.35,1.077-0.565
			c0.446-0.215,0.92-0.322,1.42-0.322c0.803,0,1.379,0.345,1.727,1.034c0.133,0.279,0.254,0.397,0.361,0.356
			s0.275-0.119,0.502-0.232c0.539-0.267,1.082-0.525,1.633-0.778s1.006-0.38,1.367-0.38c1.463,0,2.193,1.332,2.193,3.996
			l-0.086,2.771v0.551c0,0.493,0.246,0.816,0.74,0.968c0.209,0.07,0.41,0.119,0.604,0.147s0.318,0.056,0.379,0.081
			s0.09,0.075,0.09,0.151s-0.031,0.12-0.094,0.133h-4.576c-0.062-0.013-0.094-0.057-0.094-0.133c0-0.12,0.148-0.202,0.445-0.247
			c0.678-0.095,1.016-0.486,1.016-1.177C36.226,39.912,36.251,39.435,36.251,38.795z"/>
	</g>
</g>
</svg>
